<svg class="main-svg" xmlns="http://www.w3.org/2000/svg" xmlns:xlink="http://www.w3.org/1999/xlink" width="1350" height="750" style="" viewBox="0 0 900 500"><rect x="0" y="0" width="900" height="500" style="fill: rgb(255, 255, 255); fill-opacity: 1;"/><defs id="defs-caf328"><g class="clips"><clipPath id="clipcaf328xyplot" class="plotclip"><rect width="740" height="320"/></clipPath><clipPath class="axesclip" id="clipcaf328x"><rect x="80" y="0" width="740" height="500"/></clipPath><clipPath class="axesclip" id="clipcaf328y"><rect x="0" y="100" width="900" height="320"/></clipPath><clipPath class="axesclip" id="clipcaf328xy"><rect x="80" y="100" width="740" height="320"/></clipPath></g><g class="gradients"/><g class="patterns"/></defs><g class="bglayer"><rect class="bg" x="80" y="100" width="740" height="320" style="fill: rgb(237, 237, 237); fill-opacity: 1; stroke-width: 0;"/></g><g class="layer-below"><g class="imagelayer"/><g class="shapelayer"/></g><g class="cartesianlayer"><g class="subplot xy"><g class="layer-subplot"><g class="shapelayer"/><g class="imagelayer"/></g><g class="minor-gridlayer"><g class="x"/><g class="y"/></g><g class="gridlayer"><g class="x"><path class="xgrid crisp" transform="translate(106.11,0)" d="M0,100v320" style="stroke: rgb(128, 128, 128); stroke-opacity: 1; stroke-dasharray: 3px, 3px; stroke-width: 0.5px;"/><path class="xgrid crisp" transform="translate(184.45,0)" d="M0,100v320" style="stroke: rgb(128, 128, 128); stroke-opacity: 1; stroke-dasharray: 3px, 3px; stroke-width: 0.5px;"/><path class="xgrid crisp" transform="translate(262.78,0)" d="M0,100v320" style="stroke: rgb(128, 128, 128); stroke-opacity: 1; stroke-dasharray: 3px, 3px; stroke-width: 0.5px;"/><path class="xgrid crisp" transform="translate(341.12,0)" d="M0,100v320" style="stroke: rgb(128, 128, 128); stroke-opacity: 1; stroke-dasharray: 3px, 3px; stroke-width: 0.5px;"/><path class="xgrid crisp" transform="translate(419.45,0)" d="M0,100v320" style="stroke: rgb(128, 128, 128); stroke-opacity: 1; stroke-dasharray: 3px, 3px; stroke-width: 0.5px;"/><path class="xgrid crisp" transform="translate(497.78,0)" d="M0,100v320" style="stroke: rgb(128, 128, 128); stroke-opacity: 1; stroke-dasharray: 3px, 3px; stroke-width: 0.5px;"/><path class="xgrid crisp" transform="translate(576.12,0)" d="M0,100v320" style="stroke: rgb(128, 128, 128); stroke-opacity: 1; stroke-dasharray: 3px, 3px; stroke-width: 0.5px;"/><path class="xgrid crisp" transform="translate(654.45,0)" d="M0,100v320" style="stroke: rgb(128, 128, 128); stroke-opacity: 1; stroke-dasharray: 3px, 3px; stroke-width: 0.5px;"/><path class="xgrid crisp" transform="translate(732.79,0)" d="M0,100v320" style="stroke: rgb(128, 128, 128); stroke-opacity: 1; stroke-dasharray: 3px, 3px; stroke-width: 0.5px;"/><path class="xgrid crisp" transform="translate(811.12,0)" d="M0,100v320" style="stroke: rgb(128, 128, 128); stroke-opacity: 1; stroke-dasharray: 3px, 3px; stroke-width: 0.5px;"/></g><g class="y"><path class="ygrid crisp" transform="translate(0,400.76)" d="M80,0h740" style="stroke: rgb(128, 128, 128); stroke-opacity: 1; stroke-dasharray: 3px, 3px; stroke-width: 0.5px;"/><path class="ygrid crisp" transform="translate(0,332.58000000000004)" d="M80,0h740" style="stroke: rgb(128, 128, 128); stroke-opacity: 1; stroke-dasharray: 3px, 3px; stroke-width: 0.5px;"/><path class="ygrid crisp" transform="translate(0,264.4)" d="M80,0h740" style="stroke: rgb(128, 128, 128); stroke-opacity: 1; stroke-dasharray: 3px, 3px; stroke-width: 0.5px;"/><path class="ygrid crisp" transform="translate(0,196.20999999999998)" d="M80,0h740" style="stroke: rgb(128, 128, 128); stroke-opacity: 1; stroke-dasharray: 3px, 3px; stroke-width: 0.5px;"/><path class="ygrid crisp" transform="translate(0,128.03)" d="M80,0h740" style="stroke: rgb(128, 128, 128); stroke-opacity: 1; stroke-dasharray: 3px, 3px; stroke-width: 0.5px;"/></g></g><g class="zerolinelayer"/><path class="xlines-below"/><path class="ylines-below"/><g class="overlines-below"/><g class="xaxislayer-below"/><g class="yaxislayer-below"/><g class="overaxes-below"/><g class="plot" transform="translate(80,100)" clip-path="url(#clipcaf328xyplot)"><g class="scatterlayer mlayer"><g class="trace scatter tracebfbf5b" style="stroke-miterlimit: 2; opacity: 1;"><g class="fills"/><g class="errorbars"/><g class="lines"><path class="js-line" d="M0,31.76L26.11,31.23L52.22,32.64L104.45,31.77L130.56,29.57L156.67,35.15L182.78,34.85L208.89,33.81L235,29.35L261.12,31.64L287.23,30.57L313.34,29.08L339.45,28.65L417.78,28.65L443.9,30.27L505.05,30.81L518.18,38.44L531.15,38.27L544.19,32.73L558.69,32.71L583.37,17.3L609.48,16L622.49,297.18L635.56,298.79L645.13,303.99L687.78,303.63L694.49,303.09L713.89,302.82L723.87,303.64L740,303.36" style="vector-effect: none; fill: none; stroke: rgb(248, 118, 109); stroke-opacity: 1; stroke-width: 2px; opacity: 1;"/></g><g class="points"/><g class="text"/></g></g></g><g class="overplot"/><path class="xlines-above crisp" d="M79,420.5H821M79,99.5H821" style="fill: none; stroke-width: 1px; stroke: rgb(0, 0, 0); stroke-opacity: 1;"/><path class="ylines-above crisp" d="M79.5,100V420M820.5,100V420" style="fill: none; stroke-width: 1px; stroke: rgb(0, 0, 0); stroke-opacity: 1;"/><g class="overlines-above"/><g class="xaxislayer-above"><path class="xtick ticks crisp" d="M0,420v-4.8M0,100v4.8" transform="translate(132.22,0)" style="stroke: rgb(51, 51, 51); stroke-opacity: 1; stroke-width: 1px;"/><path class="xtick ticks crisp" d="M0,420v-4.8M0,100v4.8" transform="translate(158.32999999999998,0)" style="stroke: rgb(51, 51, 51); stroke-opacity: 1; stroke-width: 1px;"/><path class="xtick ticks crisp" d="M0,420v-4.8M0,100v4.8" transform="translate(210.56,0)" style="stroke: rgb(51, 51, 51); stroke-opacity: 1; stroke-width: 1px;"/><path class="xtick ticks crisp" d="M0,420v-4.8M0,100v4.8" transform="translate(236.67,0)" style="stroke: rgb(51, 51, 51); stroke-opacity: 1; stroke-width: 1px;"/><path class="xtick ticks crisp" d="M0,420v-4.8M0,100v4.8" transform="translate(288.89,0)" style="stroke: rgb(51, 51, 51); stroke-opacity: 1; stroke-width: 1px;"/><path class="xtick ticks crisp" d="M0,420v-4.8M0,100v4.8" transform="translate(315,0)" style="stroke: rgb(51, 51, 51); stroke-opacity: 1; stroke-width: 1px;"/><path class="xtick ticks crisp" d="M0,420v-4.8M0,100v4.8" transform="translate(367.23,0)" style="stroke: rgb(51, 51, 51); stroke-opacity: 1; stroke-width: 1px;"/><path class="xtick ticks crisp" d="M0,420v-4.8M0,100v4.8" transform="translate(393.34,0)" style="stroke: rgb(51, 51, 51); stroke-opacity: 1; stroke-width: 1px;"/><path class="xtick ticks crisp" d="M0,420v-4.8M0,100v4.8" transform="translate(445.56,0)" style="stroke: rgb(51, 51, 51); stroke-opacity: 1; stroke-width: 1px;"/><path class="xtick ticks crisp" d="M0,420v-4.8M0,100v4.8" transform="translate(471.67,0)" style="stroke: rgb(51, 51, 51); stroke-opacity: 1; stroke-width: 1px;"/><path class="xtick ticks crisp" d="M0,420v-4.8M0,100v4.8" transform="translate(523.9,0)" style="stroke: rgb(51, 51, 51); stroke-opacity: 1; stroke-width: 1px;"/><path class="xtick ticks crisp" d="M0,420v-4.8M0,100v4.8" transform="translate(550.01,0)" style="stroke: rgb(51, 51, 51); stroke-opacity: 1; stroke-width: 1px;"/><path class="xtick ticks crisp" d="M0,420v-4.8M0,100v4.8" transform="translate(602.23,0)" style="stroke: rgb(51, 51, 51); stroke-opacity: 1; stroke-width: 1px;"/><path class="xtick ticks crisp" d="M0,420v-4.8M0,100v4.8" transform="translate(628.34,0)" style="stroke: rgb(51, 51, 51); stroke-opacity: 1; stroke-width: 1px;"/><path class="xtick ticks crisp" d="M0,420v-4.8M0,100v4.8" transform="translate(680.57,0)" style="stroke: rgb(51, 51, 51); stroke-opacity: 1; stroke-width: 1px;"/><path class="xtick ticks crisp" d="M0,420v-4.8M0,100v4.8" transform="translate(706.68,0)" style="stroke: rgb(51, 51, 51); stroke-opacity: 1; stroke-width: 1px;"/><path class="xtick ticks crisp" d="M0,420v-4.8M0,100v4.8" transform="translate(758.9,0)" style="stroke: rgb(51, 51, 51); stroke-opacity: 1; stroke-width: 1px;"/><path class="xtick ticks crisp" d="M0,420v-4.8M0,100v4.8" transform="translate(785.01,0)" style="stroke: rgb(51, 51, 51); stroke-opacity: 1; stroke-width: 1px;"/><path class="xtick ticks crisp" d="M0,420v-8M0,100v8" transform="translate(106.11,0)" style="stroke: rgb(51, 51, 51); stroke-opacity: 1; stroke-width: 1px;"/><path class="xtick ticks crisp" d="M0,420v-8M0,100v8" transform="translate(184.45,0)" style="stroke: rgb(51, 51, 51); stroke-opacity: 1; stroke-width: 1px;"/><path class="xtick ticks crisp" d="M0,420v-8M0,100v8" transform="translate(262.78,0)" style="stroke: rgb(51, 51, 51); stroke-opacity: 1; stroke-width: 1px;"/><path class="xtick ticks crisp" d="M0,420v-8M0,100v8" transform="translate(341.12,0)" style="stroke: rgb(51, 51, 51); stroke-opacity: 1; stroke-width: 1px;"/><path class="xtick ticks crisp" d="M0,420v-8M0,100v8" transform="translate(419.45,0)" style="stroke: rgb(51, 51, 51); stroke-opacity: 1; stroke-width: 1px;"/><path class="xtick ticks crisp" d="M0,420v-8M0,100v8" transform="translate(497.78,0)" style="stroke: rgb(51, 51, 51); stroke-opacity: 1; stroke-width: 1px;"/><path class="xtick ticks crisp" d="M0,420v-8M0,100v8" transform="translate(576.12,0)" style="stroke: rgb(51, 51, 51); stroke-opacity: 1; stroke-width: 1px;"/><path class="xtick ticks crisp" d="M0,420v-8M0,100v8" transform="translate(654.45,0)" style="stroke: rgb(51, 51, 51); stroke-opacity: 1; stroke-width: 1px;"/><path class="xtick ticks crisp" d="M0,420v-8M0,100v8" transform="translate(732.79,0)" style="stroke: rgb(51, 51, 51); stroke-opacity: 1; stroke-width: 1px;"/><path class="xtick ticks crisp" d="M0,420v-8M0,100v8" transform="translate(811.12,0)" style="stroke: rgb(51, 51, 51); stroke-opacity: 1; stroke-width: 1px;"/><g class="xtick"><text text-anchor="middle" x="0" y="437.8" transform="translate(106.11,0)" style="font-family: 'Open Sans', verdana, arial, sans-serif; font-size: 14px; fill: rgb(51, 51, 51); fill-opacity: 1; white-space: pre; opacity: 1;"><tspan class="line" dy="0em" x="0" y="437.8">May 25</tspan><tspan class="line" dy="1.3em" x="0" y="437.8">2023</tspan></text></g><g class="xtick"><text text-anchor="middle" x="0" y="437.8" style="font-family: 'Open Sans', verdana, arial, sans-serif; font-size: 14px; fill: rgb(51, 51, 51); fill-opacity: 1; white-space: pre; opacity: 1;" transform="translate(184.45,0)">May 28</text></g><g class="xtick"><text text-anchor="middle" x="0" y="437.8" style="font-family: 'Open Sans', verdana, arial, sans-serif; font-size: 14px; fill: rgb(51, 51, 51); fill-opacity: 1; white-space: pre; opacity: 1;" transform="translate(262.78,0)">May 31</text></g><g class="xtick"><text text-anchor="middle" x="0" y="437.8" style="font-family: 'Open Sans', verdana, arial, sans-serif; font-size: 14px; fill: rgb(51, 51, 51); fill-opacity: 1; white-space: pre; opacity: 1;" transform="translate(341.12,0)">Jun 3</text></g><g class="xtick"><text text-anchor="middle" x="0" y="437.8" style="font-family: 'Open Sans', verdana, arial, sans-serif; font-size: 14px; fill: rgb(51, 51, 51); fill-opacity: 1; white-space: pre; opacity: 1;" transform="translate(419.45,0)">Jun 6</text></g><g class="xtick"><text text-anchor="middle" x="0" y="437.8" style="font-family: 'Open Sans', verdana, arial, sans-serif; font-size: 14px; fill: rgb(51, 51, 51); fill-opacity: 1; white-space: pre; opacity: 1;" transform="translate(497.78,0)">Jun 9</text></g><g class="xtick"><text text-anchor="middle" x="0" y="437.8" style="font-family: 'Open Sans', verdana, arial, sans-serif; font-size: 14px; fill: rgb(51, 51, 51); fill-opacity: 1; white-space: pre; opacity: 1;" transform="translate(576.12,0)">Jun 12</text></g><g class="xtick"><text text-anchor="middle" x="0" y="437.8" style="font-family: 'Open Sans', verdana, arial, sans-serif; font-size: 14px; fill: rgb(51, 51, 51); fill-opacity: 1; white-space: pre; opacity: 1;" transform="translate(654.45,0)">Jun 15</text></g><g class="xtick"><text text-anchor="middle" x="0" y="437.8" style="font-family: 'Open Sans', verdana, arial, sans-serif; font-size: 14px; fill: rgb(51, 51, 51); fill-opacity: 1; white-space: pre; opacity: 1;" transform="translate(732.79,0)">Jun 18</text></g><g class="xtick"><text text-anchor="middle" x="0" y="437.8" style="font-family: 'Open Sans', verdana, arial, sans-serif; font-size: 14px; fill: rgb(51, 51, 51); fill-opacity: 1; white-space: pre; opacity: 1;" transform="translate(811.12,0)">Jun 21</text></g></g><g class="yaxislayer-above"><path class="ytick ticks crisp" d="M80,0h4.8M820,0h-4.8" transform="translate(0,417.81)" style="stroke: rgb(51, 51, 51); stroke-opacity: 1; stroke-width: 1px;"/><path class="ytick ticks crisp" d="M80,0h4.8M820,0h-4.8" transform="translate(0,383.71)" style="stroke: rgb(51, 51, 51); stroke-opacity: 1; stroke-width: 1px;"/><path class="ytick ticks crisp" d="M80,0h4.8M820,0h-4.8" transform="translate(0,366.67)" style="stroke: rgb(51, 51, 51); stroke-opacity: 1; stroke-width: 1px;"/><path class="ytick ticks crisp" d="M80,0h4.8M820,0h-4.8" transform="translate(0,349.62)" style="stroke: rgb(51, 51, 51); stroke-opacity: 1; stroke-width: 1px;"/><path class="ytick ticks crisp" d="M80,0h4.8M820,0h-4.8" transform="translate(0,315.53)" style="stroke: rgb(51, 51, 51); stroke-opacity: 1; stroke-width: 1px;"/><path class="ytick ticks crisp" d="M80,0h4.8M820,0h-4.8" transform="translate(0,298.49)" style="stroke: rgb(51, 51, 51); stroke-opacity: 1; stroke-width: 1px;"/><path class="ytick ticks crisp" d="M80,0h4.8M820,0h-4.8" transform="translate(0,281.44)" style="stroke: rgb(51, 51, 51); stroke-opacity: 1; stroke-width: 1px;"/><path class="ytick ticks crisp" d="M80,0h4.8M820,0h-4.8" transform="translate(0,247.35)" style="stroke: rgb(51, 51, 51); stroke-opacity: 1; stroke-width: 1px;"/><path class="ytick ticks crisp" d="M80,0h4.8M820,0h-4.8" transform="translate(0,230.31)" style="stroke: rgb(51, 51, 51); stroke-opacity: 1; stroke-width: 1px;"/><path class="ytick ticks crisp" d="M80,0h4.8M820,0h-4.8" transform="translate(0,213.26)" style="stroke: rgb(51, 51, 51); stroke-opacity: 1; stroke-width: 1px;"/><path class="ytick ticks crisp" d="M80,0h4.8M820,0h-4.8" transform="translate(0,179.17000000000002)" style="stroke: rgb(51, 51, 51); stroke-opacity: 1; stroke-width: 1px;"/><path class="ytick ticks crisp" d="M80,0h4.8M820,0h-4.8" transform="translate(0,162.12)" style="stroke: rgb(51, 51, 51); stroke-opacity: 1; stroke-width: 1px;"/><path class="ytick ticks crisp" d="M80,0h4.8M820,0h-4.8" transform="translate(0,145.07999999999998)" style="stroke: rgb(51, 51, 51); stroke-opacity: 1; stroke-width: 1px;"/><path class="ytick ticks crisp" d="M80,0h4.8M820,0h-4.8" transform="translate(0,110.99)" style="stroke: rgb(51, 51, 51); stroke-opacity: 1; stroke-width: 1px;"/><path class="ytick ticks crisp" d="M80,0h8M820,0h-8" transform="translate(0,400.76)" style="stroke: rgb(51, 51, 51); stroke-opacity: 1; stroke-width: 1px;"/><path class="ytick ticks crisp" d="M80,0h8M820,0h-8" transform="translate(0,332.58000000000004)" style="stroke: rgb(51, 51, 51); stroke-opacity: 1; stroke-width: 1px;"/><path class="ytick ticks crisp" d="M80,0h8M820,0h-8" transform="translate(0,264.4)" style="stroke: rgb(51, 51, 51); stroke-opacity: 1; stroke-width: 1px;"/><path class="ytick ticks crisp" d="M80,0h8M820,0h-8" transform="translate(0,196.20999999999998)" style="stroke: rgb(51, 51, 51); stroke-opacity: 1; stroke-width: 1px;"/><path class="ytick ticks crisp" d="M80,0h8M820,0h-8" transform="translate(0,128.03)" style="stroke: rgb(51, 51, 51); stroke-opacity: 1; stroke-width: 1px;"/><g class="ytick"><text text-anchor="end" x="76.2" y="4.8999999999999995" transform="translate(0,400.76)" style="font-family: 'Open Sans', verdana, arial, sans-serif; font-size: 14px; fill: rgb(51, 51, 51); fill-opacity: 1; white-space: pre; opacity: 1;">1M</text></g><g class="ytick"><text text-anchor="end" x="76.2" y="4.8999999999999995" style="font-family: 'Open Sans', verdana, arial, sans-serif; font-size: 14px; fill: rgb(51, 51, 51); fill-opacity: 1; white-space: pre; opacity: 1;" transform="translate(0,332.58000000000004)">1.2M</text></g><g class="ytick"><text text-anchor="end" x="76.2" y="4.8999999999999995" style="font-family: 'Open Sans', verdana, arial, sans-serif; font-size: 14px; fill: rgb(51, 51, 51); fill-opacity: 1; white-space: pre; opacity: 1;" transform="translate(0,264.4)">1.4M</text></g><g class="ytick"><text text-anchor="end" x="76.2" y="4.8999999999999995" style="font-family: 'Open Sans', verdana, arial, sans-serif; font-size: 14px; fill: rgb(51, 51, 51); fill-opacity: 1; white-space: pre; opacity: 1;" transform="translate(0,196.20999999999998)">1.6M</text></g><g class="ytick"><text text-anchor="end" x="76.2" y="4.8999999999999995" style="font-family: 'Open Sans', verdana, arial, sans-serif; font-size: 14px; fill: rgb(51, 51, 51); fill-opacity: 1; white-space: pre; opacity: 1;" transform="translate(0,128.03)">1.8M</text></g></g><g class="overaxes-above"/></g></g><g class="polarlayer"/><g class="smithlayer"/><g class="ternarylayer"/><g class="geolayer"/><g class="funnelarealayer"/><g class="pielayer"/><g class="iciclelayer"/><g class="treemaplayer"/><g class="sunburstlayer"/><g class="glimages"/><defs id="topdefs-caf328"><g class="clips"><clipPath class="annclip" id="clipcaf328_ann0"><rect x="2" y="2" width="220" height="14"/></clipPath></g></defs><g class="layer-above"><g class="imagelayer"/><g class="shapelayer"><g class="shape-group" data-index="0" clip-path="url(#clipcaf328y)"><path data-index="0" fill-rule="evenodd" d="M820,403.36L827.4,403.36" style="opacity: 1; stroke: rgb(0, 0, 0); stroke-opacity: 1; fill: rgb(0, 0, 0); fill-opacity: 1; stroke-width: 1px;"/><g data-index="0" class="shape-label"><text data-notex="1" class="shape-label-text" x="827.4" y="409.36" style="font-family: 'Open Sans', verdana, arial, sans-serif; font-size: 14px; fill: rgb(51, 51, 51); fill-opacity: 1; white-space: pre;" text-anchor="start" transform="rotate(0,827.4,409.36)">992,363</text></g></g></g></g><g class="infolayer"><g class="g-gtitle"><text class="gtitle" x="450" y="50" text-anchor="middle" dy="0em" style="font-family: 'Open Sans', verdana, arial, sans-serif; font-size: 20px; fill: rgb(51, 51, 51); opacity: 1; font-weight: normal; white-space: pre;"><tspan class="line" dy="0em" x="450" y="50"><tspan style="font-weight:bold">Unique domain counts</tspan></tspan><tspan class="line" dy="1.3em" x="450" y="50">​<tspan style="font-size:70%" dy="-0.6em"><tspan style="font-weight:bold">(with subdomains)</tspan></tspan><tspan dy="0.42em">​</tspan></tspan></text></g><g class="g-xtitle"><text class="xtitle" x="450" y="470.4" text-anchor="middle" style="font-family: 'Open Sans', verdana, arial, sans-serif; font-size: 17px; fill: rgb(51, 51, 51); opacity: 1; font-weight: normal; white-space: pre;">Date</text></g><g class="g-ytitle"><text class="ytitle" transform="rotate(-90,33.6625,260)" x="33.6625" y="260" text-anchor="middle" style="font-family: 'Open Sans', verdana, arial, sans-serif; font-size: 17px; fill: rgb(51, 51, 51); opacity: 1; font-weight: normal; white-space: pre;">Domain counts</text></g><g class="annotation" data-index="0" style="opacity: 1;"><g class="annotation-text-g" transform="rotate(0,114.3,491)"><g class="cursor-pointer" transform="translate(2,482)"><rect class="bg" x="0.5" y="0.5" width="223" height="17" style="stroke-width: 1px; stroke: rgb(0, 0, 0); stroke-opacity: 0; fill: rgb(0, 0, 0); fill-opacity: 0;"/><text class="annotation-text" text-anchor="start" x="2" y="13" style="font-family: 'Open Sans', verdana, arial, sans-serif; font-size: 12px; fill: rgb(128, 128, 128); fill-opacity: 1; white-space: pre;" clip-path="url(#clipcaf328_ann0)">Last update: Jun 21 2023 08:09:34 UTC</text></g></g></g></g></svg>