<svg class="main-svg" xmlns="http://www.w3.org/2000/svg" xmlns:xlink="http://www.w3.org/1999/xlink" width="1350" height="750" style="" viewBox="0 0 900 500"><rect x="0" y="0" width="900" height="500" style="fill: rgb(255, 255, 255); fill-opacity: 1;"/><defs id="defs-b2e8c0"><g class="clips"><clipPath id="clipb2e8c0xyplot" class="plotclip"><rect width="740" height="320"/></clipPath><clipPath class="axesclip" id="clipb2e8c0x"><rect x="80" y="0" width="740" height="500"/></clipPath><clipPath class="axesclip" id="clipb2e8c0y"><rect x="0" y="100" width="900" height="320"/></clipPath><clipPath class="axesclip" id="clipb2e8c0xy"><rect x="80" y="100" width="740" height="320"/></clipPath></g><g class="gradients"/><g class="patterns"/></defs><g class="bglayer"><rect class="bg" x="80" y="100" width="740" height="320" style="fill: rgb(237, 237, 237); fill-opacity: 1; stroke-width: 0;"/></g><g class="layer-below"><g class="imagelayer"/><g class="shapelayer"/></g><g class="cartesianlayer"><g class="subplot xy"><g class="layer-subplot"><g class="shapelayer"/><g class="imagelayer"/></g><g class="minor-gridlayer"><g class="x"/><g class="y"/></g><g class="gridlayer"><g class="x"><path class="xgrid crisp" transform="translate(112.22999999999999,0)" d="M0,100v320" style="stroke: rgb(128, 128, 128); stroke-opacity: 1; stroke-dasharray: 3px, 3px; stroke-width: 0.5px;"/><path class="xgrid crisp" transform="translate(212.34,0)" d="M0,100v320" style="stroke: rgb(128, 128, 128); stroke-opacity: 1; stroke-dasharray: 3px, 3px; stroke-width: 0.5px;"/><path class="xgrid crisp" transform="translate(312.45,0)" d="M0,100v320" style="stroke: rgb(128, 128, 128); stroke-opacity: 1; stroke-dasharray: 3px, 3px; stroke-width: 0.5px;"/><path class="xgrid crisp" transform="translate(412.55,0)" d="M0,100v320" style="stroke: rgb(128, 128, 128); stroke-opacity: 1; stroke-dasharray: 3px, 3px; stroke-width: 0.5px;"/><path class="xgrid crisp" transform="translate(512.6600000000001,0)" d="M0,100v320" style="stroke: rgb(128, 128, 128); stroke-opacity: 1; stroke-dasharray: 3px, 3px; stroke-width: 0.5px;"/><path class="xgrid crisp" transform="translate(612.77,0)" d="M0,100v320" style="stroke: rgb(128, 128, 128); stroke-opacity: 1; stroke-dasharray: 3px, 3px; stroke-width: 0.5px;"/><path class="xgrid crisp" transform="translate(712.88,0)" d="M0,100v320" style="stroke: rgb(128, 128, 128); stroke-opacity: 1; stroke-dasharray: 3px, 3px; stroke-width: 0.5px;"/><path class="xgrid crisp" transform="translate(812.99,0)" d="M0,100v320" style="stroke: rgb(128, 128, 128); stroke-opacity: 1; stroke-dasharray: 3px, 3px; stroke-width: 0.5px;"/></g><g class="y"><path class="ygrid crisp" transform="translate(0,403.67)" d="M80,0h740" style="stroke: rgb(128, 128, 128); stroke-opacity: 1; stroke-dasharray: 3px, 3px; stroke-width: 0.5px;"/><path class="ygrid crisp" transform="translate(0,361.96)" d="M80,0h740" style="stroke: rgb(128, 128, 128); stroke-opacity: 1; stroke-dasharray: 3px, 3px; stroke-width: 0.5px;"/><path class="ygrid crisp" transform="translate(0,320.26)" d="M80,0h740" style="stroke: rgb(128, 128, 128); stroke-opacity: 1; stroke-dasharray: 3px, 3px; stroke-width: 0.5px;"/><path class="ygrid crisp" transform="translate(0,278.56)" d="M80,0h740" style="stroke: rgb(128, 128, 128); stroke-opacity: 1; stroke-dasharray: 3px, 3px; stroke-width: 0.5px;"/><path class="ygrid crisp" transform="translate(0,236.85)" d="M80,0h740" style="stroke: rgb(128, 128, 128); stroke-opacity: 1; stroke-dasharray: 3px, 3px; stroke-width: 0.5px;"/><path class="ygrid crisp" transform="translate(0,195.15)" d="M80,0h740" style="stroke: rgb(128, 128, 128); stroke-opacity: 1; stroke-dasharray: 3px, 3px; stroke-width: 0.5px;"/><path class="ygrid crisp" transform="translate(0,153.45)" d="M80,0h740" style="stroke: rgb(128, 128, 128); stroke-opacity: 1; stroke-dasharray: 3px, 3px; stroke-width: 0.5px;"/><path class="ygrid crisp" transform="translate(0,111.75)" d="M80,0h740" style="stroke: rgb(128, 128, 128); stroke-opacity: 1; stroke-dasharray: 3px, 3px; stroke-width: 0.5px;"/></g></g><g class="zerolinelayer"/><path class="xlines-below"/><path class="ylines-below"/><g class="overlines-below"/><g class="xaxislayer-below"/><g class="yaxislayer-below"/><g class="overaxes-below"/><g class="plot" transform="translate(80,100)" clip-path="url(#clipb2e8c0xyplot)"><g class="scatterlayer mlayer"><g class="trace scatter traceea0776" style="stroke-miterlimit: 2; opacity: 1;"><g class="fills"/><g class="errorbars"/><g class="lines"><path class="js-line" d="M0,304L100.02,247.37L200.06,247.78L300.57,213.92L400.35,67.21L500.72,16L600.6,213.67L700.95,148.28L734.81,132.93L740,127.26" style="vector-effect: none; fill: none; stroke: rgb(248, 118, 109); stroke-opacity: 1; stroke-width: 2px; opacity: 1;"/></g><g class="points"/><g class="text"/></g></g></g><g class="overplot"/><path class="xlines-above crisp" d="M79,420.5H821M79,99.5H821" style="fill: none; stroke-width: 1px; stroke: rgb(0, 0, 0); stroke-opacity: 1;"/><path class="ylines-above crisp" d="M79.5,100V420M820.5,100V420" style="fill: none; stroke-width: 1px; stroke: rgb(0, 0, 0); stroke-opacity: 1;"/><g class="overlines-above"/><g class="xaxislayer-above"><path class="xtick ticks crisp" d="M0,420v-4.8M0,100v4.8" transform="translate(87.2,0)" style="stroke: rgb(51, 51, 51); stroke-opacity: 1; stroke-width: 1px;"/><path class="xtick ticks crisp" d="M0,420v-4.8M0,100v4.8" transform="translate(137.25,0)" style="stroke: rgb(51, 51, 51); stroke-opacity: 1; stroke-width: 1px;"/><path class="xtick ticks crisp" d="M0,420v-4.8M0,100v4.8" transform="translate(162.28,0)" style="stroke: rgb(51, 51, 51); stroke-opacity: 1; stroke-width: 1px;"/><path class="xtick ticks crisp" d="M0,420v-4.8M0,100v4.8" transform="translate(187.31,0)" style="stroke: rgb(51, 51, 51); stroke-opacity: 1; stroke-width: 1px;"/><path class="xtick ticks crisp" d="M0,420v-4.8M0,100v4.8" transform="translate(237.36,0)" style="stroke: rgb(51, 51, 51); stroke-opacity: 1; stroke-width: 1px;"/><path class="xtick ticks crisp" d="M0,420v-4.8M0,100v4.8" transform="translate(262.39,0)" style="stroke: rgb(51, 51, 51); stroke-opacity: 1; stroke-width: 1px;"/><path class="xtick ticks crisp" d="M0,420v-4.8M0,100v4.8" transform="translate(287.41999999999996,0)" style="stroke: rgb(51, 51, 51); stroke-opacity: 1; stroke-width: 1px;"/><path class="xtick ticks crisp" d="M0,420v-4.8M0,100v4.8" transform="translate(337.47,0)" style="stroke: rgb(51, 51, 51); stroke-opacity: 1; stroke-width: 1px;"/><path class="xtick ticks crisp" d="M0,420v-4.8M0,100v4.8" transform="translate(362.5,0)" style="stroke: rgb(51, 51, 51); stroke-opacity: 1; stroke-width: 1px;"/><path class="xtick ticks crisp" d="M0,420v-4.8M0,100v4.8" transform="translate(387.53,0)" style="stroke: rgb(51, 51, 51); stroke-opacity: 1; stroke-width: 1px;"/><path class="xtick ticks crisp" d="M0,420v-4.8M0,100v4.8" transform="translate(437.58,0)" style="stroke: rgb(51, 51, 51); stroke-opacity: 1; stroke-width: 1px;"/><path class="xtick ticks crisp" d="M0,420v-4.8M0,100v4.8" transform="translate(462.61,0)" style="stroke: rgb(51, 51, 51); stroke-opacity: 1; stroke-width: 1px;"/><path class="xtick ticks crisp" d="M0,420v-4.8M0,100v4.8" transform="translate(487.64,0)" style="stroke: rgb(51, 51, 51); stroke-opacity: 1; stroke-width: 1px;"/><path class="xtick ticks crisp" d="M0,420v-4.8M0,100v4.8" transform="translate(537.69,0)" style="stroke: rgb(51, 51, 51); stroke-opacity: 1; stroke-width: 1px;"/><path class="xtick ticks crisp" d="M0,420v-4.8M0,100v4.8" transform="translate(562.72,0)" style="stroke: rgb(51, 51, 51); stroke-opacity: 1; stroke-width: 1px;"/><path class="xtick ticks crisp" d="M0,420v-4.8M0,100v4.8" transform="translate(587.75,0)" style="stroke: rgb(51, 51, 51); stroke-opacity: 1; stroke-width: 1px;"/><path class="xtick ticks crisp" d="M0,420v-4.8M0,100v4.8" transform="translate(637.8,0)" style="stroke: rgb(51, 51, 51); stroke-opacity: 1; stroke-width: 1px;"/><path class="xtick ticks crisp" d="M0,420v-4.8M0,100v4.8" transform="translate(662.83,0)" style="stroke: rgb(51, 51, 51); stroke-opacity: 1; stroke-width: 1px;"/><path class="xtick ticks crisp" d="M0,420v-4.8M0,100v4.8" transform="translate(687.86,0)" style="stroke: rgb(51, 51, 51); stroke-opacity: 1; stroke-width: 1px;"/><path class="xtick ticks crisp" d="M0,420v-4.8M0,100v4.8" transform="translate(737.91,0)" style="stroke: rgb(51, 51, 51); stroke-opacity: 1; stroke-width: 1px;"/><path class="xtick ticks crisp" d="M0,420v-4.8M0,100v4.8" transform="translate(762.94,0)" style="stroke: rgb(51, 51, 51); stroke-opacity: 1; stroke-width: 1px;"/><path class="xtick ticks crisp" d="M0,420v-4.8M0,100v4.8" transform="translate(787.97,0)" style="stroke: rgb(51, 51, 51); stroke-opacity: 1; stroke-width: 1px;"/><path class="xtick ticks crisp" d="M0,420v-8M0,100v8" transform="translate(112.22999999999999,0)" style="stroke: rgb(51, 51, 51); stroke-opacity: 1; stroke-width: 1px;"/><path class="xtick ticks crisp" d="M0,420v-8M0,100v8" transform="translate(212.34,0)" style="stroke: rgb(51, 51, 51); stroke-opacity: 1; stroke-width: 1px;"/><path class="xtick ticks crisp" d="M0,420v-8M0,100v8" transform="translate(312.45,0)" style="stroke: rgb(51, 51, 51); stroke-opacity: 1; stroke-width: 1px;"/><path class="xtick ticks crisp" d="M0,420v-8M0,100v8" transform="translate(412.55,0)" style="stroke: rgb(51, 51, 51); stroke-opacity: 1; stroke-width: 1px;"/><path class="xtick ticks crisp" d="M0,420v-8M0,100v8" transform="translate(512.6600000000001,0)" style="stroke: rgb(51, 51, 51); stroke-opacity: 1; stroke-width: 1px;"/><path class="xtick ticks crisp" d="M0,420v-8M0,100v8" transform="translate(612.77,0)" style="stroke: rgb(51, 51, 51); stroke-opacity: 1; stroke-width: 1px;"/><path class="xtick ticks crisp" d="M0,420v-8M0,100v8" transform="translate(712.88,0)" style="stroke: rgb(51, 51, 51); stroke-opacity: 1; stroke-width: 1px;"/><path class="xtick ticks crisp" d="M0,420v-8M0,100v8" transform="translate(812.99,0)" style="stroke: rgb(51, 51, 51); stroke-opacity: 1; stroke-width: 1px;"/><g class="xtick"><text text-anchor="middle" x="0" y="437.8" transform="translate(112.22999999999999,0)" style="font-family: 'Open Sans', verdana, arial, sans-serif; font-size: 14px; fill: rgb(51, 51, 51); fill-opacity: 1; white-space: pre; opacity: 1;"><tspan class="line" dy="0em" x="0" y="437.8">00:00</tspan><tspan class="line" dy="1.3em" x="0" y="437.8">Jun 18, 2023</tspan></text></g><g class="xtick"><text text-anchor="middle" x="0" y="437.8" style="font-family: 'Open Sans', verdana, arial, sans-serif; font-size: 14px; fill: rgb(51, 51, 51); fill-opacity: 1; white-space: pre; opacity: 1;" transform="translate(212.34,0)">12:00</text></g><g class="xtick"><text text-anchor="middle" x="0" y="437.8" style="font-family: 'Open Sans', verdana, arial, sans-serif; font-size: 14px; fill: rgb(51, 51, 51); fill-opacity: 1; white-space: pre; opacity: 1;" transform="translate(312.45,0)"><tspan class="line" dy="0em" x="0" y="437.8">00:00</tspan><tspan class="line" dy="1.3em" x="0" y="437.8">Jun 19, 2023</tspan></text></g><g class="xtick"><text text-anchor="middle" x="0" y="437.8" style="font-family: 'Open Sans', verdana, arial, sans-serif; font-size: 14px; fill: rgb(51, 51, 51); fill-opacity: 1; white-space: pre; opacity: 1;" transform="translate(412.55,0)">12:00</text></g><g class="xtick"><text text-anchor="middle" x="0" y="437.8" style="font-family: 'Open Sans', verdana, arial, sans-serif; font-size: 14px; fill: rgb(51, 51, 51); fill-opacity: 1; white-space: pre; opacity: 1;" transform="translate(512.6600000000001,0)"><tspan class="line" dy="0em" x="0" y="437.8">00:00</tspan><tspan class="line" dy="1.3em" x="0" y="437.8">Jun 20, 2023</tspan></text></g><g class="xtick"><text text-anchor="middle" x="0" y="437.8" style="font-family: 'Open Sans', verdana, arial, sans-serif; font-size: 14px; fill: rgb(51, 51, 51); fill-opacity: 1; white-space: pre; opacity: 1;" transform="translate(612.77,0)">12:00</text></g><g class="xtick"><text text-anchor="middle" x="0" y="437.8" style="font-family: 'Open Sans', verdana, arial, sans-serif; font-size: 14px; fill: rgb(51, 51, 51); fill-opacity: 1; white-space: pre; opacity: 1;" transform="translate(712.88,0)"><tspan class="line" dy="0em" x="0" y="437.8">00:00</tspan><tspan class="line" dy="1.3em" x="0" y="437.8">Jun 21, 2023</tspan></text></g><g class="xtick"><text text-anchor="middle" x="0" y="437.8" style="font-family: 'Open Sans', verdana, arial, sans-serif; font-size: 14px; fill: rgb(51, 51, 51); fill-opacity: 1; white-space: pre; opacity: 1;" transform="translate(812.99,0)">12:00</text></g></g><g class="yaxislayer-above"><path class="ytick ticks crisp" d="M80,0h4.8M820,0h-4.8" transform="translate(0,412.01)" style="stroke: rgb(51, 51, 51); stroke-opacity: 1; stroke-width: 1px;"/><path class="ytick ticks crisp" d="M80,0h4.8M820,0h-4.8" transform="translate(0,395.33)" style="stroke: rgb(51, 51, 51); stroke-opacity: 1; stroke-width: 1px;"/><path class="ytick ticks crisp" d="M80,0h4.8M820,0h-4.8" transform="translate(0,386.99)" style="stroke: rgb(51, 51, 51); stroke-opacity: 1; stroke-width: 1px;"/><path class="ytick ticks crisp" d="M80,0h4.8M820,0h-4.8" transform="translate(0,378.64)" style="stroke: rgb(51, 51, 51); stroke-opacity: 1; stroke-width: 1px;"/><path class="ytick ticks crisp" d="M80,0h4.8M820,0h-4.8" transform="translate(0,370.3)" style="stroke: rgb(51, 51, 51); stroke-opacity: 1; stroke-width: 1px;"/><path class="ytick ticks crisp" d="M80,0h4.8M820,0h-4.8" transform="translate(0,353.62)" style="stroke: rgb(51, 51, 51); stroke-opacity: 1; stroke-width: 1px;"/><path class="ytick ticks crisp" d="M80,0h4.8M820,0h-4.8" transform="translate(0,345.28)" style="stroke: rgb(51, 51, 51); stroke-opacity: 1; stroke-width: 1px;"/><path class="ytick ticks crisp" d="M80,0h4.8M820,0h-4.8" transform="translate(0,336.94)" style="stroke: rgb(51, 51, 51); stroke-opacity: 1; stroke-width: 1px;"/><path class="ytick ticks crisp" d="M80,0h4.8M820,0h-4.8" transform="translate(0,328.6)" style="stroke: rgb(51, 51, 51); stroke-opacity: 1; stroke-width: 1px;"/><path class="ytick ticks crisp" d="M80,0h4.8M820,0h-4.8" transform="translate(0,311.91999999999996)" style="stroke: rgb(51, 51, 51); stroke-opacity: 1; stroke-width: 1px;"/><path class="ytick ticks crisp" d="M80,0h4.8M820,0h-4.8" transform="translate(0,303.58000000000004)" style="stroke: rgb(51, 51, 51); stroke-opacity: 1; stroke-width: 1px;"/><path class="ytick ticks crisp" d="M80,0h4.8M820,0h-4.8" transform="translate(0,295.24)" style="stroke: rgb(51, 51, 51); stroke-opacity: 1; stroke-width: 1px;"/><path class="ytick ticks crisp" d="M80,0h4.8M820,0h-4.8" transform="translate(0,286.9)" style="stroke: rgb(51, 51, 51); stroke-opacity: 1; stroke-width: 1px;"/><path class="ytick ticks crisp" d="M80,0h4.8M820,0h-4.8" transform="translate(0,270.22)" style="stroke: rgb(51, 51, 51); stroke-opacity: 1; stroke-width: 1px;"/><path class="ytick ticks crisp" d="M80,0h4.8M820,0h-4.8" transform="translate(0,261.88)" style="stroke: rgb(51, 51, 51); stroke-opacity: 1; stroke-width: 1px;"/><path class="ytick ticks crisp" d="M80,0h4.8M820,0h-4.8" transform="translate(0,253.54)" style="stroke: rgb(51, 51, 51); stroke-opacity: 1; stroke-width: 1px;"/><path class="ytick ticks crisp" d="M80,0h4.8M820,0h-4.8" transform="translate(0,245.2)" style="stroke: rgb(51, 51, 51); stroke-opacity: 1; stroke-width: 1px;"/><path class="ytick ticks crisp" d="M80,0h4.8M820,0h-4.8" transform="translate(0,228.51)" style="stroke: rgb(51, 51, 51); stroke-opacity: 1; stroke-width: 1px;"/><path class="ytick ticks crisp" d="M80,0h4.8M820,0h-4.8" transform="translate(0,220.17000000000002)" style="stroke: rgb(51, 51, 51); stroke-opacity: 1; stroke-width: 1px;"/><path class="ytick ticks crisp" d="M80,0h4.8M820,0h-4.8" transform="translate(0,211.82999999999998)" style="stroke: rgb(51, 51, 51); stroke-opacity: 1; stroke-width: 1px;"/><path class="ytick ticks crisp" d="M80,0h4.8M820,0h-4.8" transform="translate(0,203.49)" style="stroke: rgb(51, 51, 51); stroke-opacity: 1; stroke-width: 1px;"/><path class="ytick ticks crisp" d="M80,0h4.8M820,0h-4.8" transform="translate(0,186.81)" style="stroke: rgb(51, 51, 51); stroke-opacity: 1; stroke-width: 1px;"/><path class="ytick ticks crisp" d="M80,0h4.8M820,0h-4.8" transform="translate(0,178.47)" style="stroke: rgb(51, 51, 51); stroke-opacity: 1; stroke-width: 1px;"/><path class="ytick ticks crisp" d="M80,0h4.8M820,0h-4.8" transform="translate(0,170.13)" style="stroke: rgb(51, 51, 51); stroke-opacity: 1; stroke-width: 1px;"/><path class="ytick ticks crisp" d="M80,0h4.8M820,0h-4.8" transform="translate(0,161.79)" style="stroke: rgb(51, 51, 51); stroke-opacity: 1; stroke-width: 1px;"/><path class="ytick ticks crisp" d="M80,0h4.8M820,0h-4.8" transform="translate(0,145.11)" style="stroke: rgb(51, 51, 51); stroke-opacity: 1; stroke-width: 1px;"/><path class="ytick ticks crisp" d="M80,0h4.8M820,0h-4.8" transform="translate(0,136.77)" style="stroke: rgb(51, 51, 51); stroke-opacity: 1; stroke-width: 1px;"/><path class="ytick ticks crisp" d="M80,0h4.8M820,0h-4.8" transform="translate(0,128.43)" style="stroke: rgb(51, 51, 51); stroke-opacity: 1; stroke-width: 1px;"/><path class="ytick ticks crisp" d="M80,0h4.8M820,0h-4.8" transform="translate(0,120.09)" style="stroke: rgb(51, 51, 51); stroke-opacity: 1; stroke-width: 1px;"/><path class="ytick ticks crisp" d="M80,0h4.8M820,0h-4.8" transform="translate(0,103.41)" style="stroke: rgb(51, 51, 51); stroke-opacity: 1; stroke-width: 1px;"/><path class="ytick ticks crisp" d="M80,0h8M820,0h-8" transform="translate(0,403.67)" style="stroke: rgb(51, 51, 51); stroke-opacity: 1; stroke-width: 1px;"/><path class="ytick ticks crisp" d="M80,0h8M820,0h-8" transform="translate(0,361.96)" style="stroke: rgb(51, 51, 51); stroke-opacity: 1; stroke-width: 1px;"/><path class="ytick ticks crisp" d="M80,0h8M820,0h-8" transform="translate(0,320.26)" style="stroke: rgb(51, 51, 51); stroke-opacity: 1; stroke-width: 1px;"/><path class="ytick ticks crisp" d="M80,0h8M820,0h-8" transform="translate(0,278.56)" style="stroke: rgb(51, 51, 51); stroke-opacity: 1; stroke-width: 1px;"/><path class="ytick ticks crisp" d="M80,0h8M820,0h-8" transform="translate(0,236.85)" style="stroke: rgb(51, 51, 51); stroke-opacity: 1; stroke-width: 1px;"/><path class="ytick ticks crisp" d="M80,0h8M820,0h-8" transform="translate(0,195.15)" style="stroke: rgb(51, 51, 51); stroke-opacity: 1; stroke-width: 1px;"/><path class="ytick ticks crisp" d="M80,0h8M820,0h-8" transform="translate(0,153.45)" style="stroke: rgb(51, 51, 51); stroke-opacity: 1; stroke-width: 1px;"/><path class="ytick ticks crisp" d="M80,0h8M820,0h-8" transform="translate(0,111.75)" style="stroke: rgb(51, 51, 51); stroke-opacity: 1; stroke-width: 1px;"/><g class="ytick"><text text-anchor="end" x="76.2" y="4.8999999999999995" transform="translate(0,403.67)" style="font-family: 'Open Sans', verdana, arial, sans-serif; font-size: 14px; fill: rgb(51, 51, 51); fill-opacity: 1; white-space: pre; opacity: 1;">990.5k</text></g><g class="ytick"><text text-anchor="end" x="76.2" y="4.8999999999999995" style="font-family: 'Open Sans', verdana, arial, sans-serif; font-size: 14px; fill: rgb(51, 51, 51); fill-opacity: 1; white-space: pre; opacity: 1;" transform="translate(0,361.96)">991k</text></g><g class="ytick"><text text-anchor="end" x="76.2" y="4.8999999999999995" style="font-family: 'Open Sans', verdana, arial, sans-serif; font-size: 14px; fill: rgb(51, 51, 51); fill-opacity: 1; white-space: pre; opacity: 1;" transform="translate(0,320.26)">991.5k</text></g><g class="ytick"><text text-anchor="end" x="76.2" y="4.8999999999999995" style="font-family: 'Open Sans', verdana, arial, sans-serif; font-size: 14px; fill: rgb(51, 51, 51); fill-opacity: 1; white-space: pre; opacity: 1;" transform="translate(0,278.56)">992k</text></g><g class="ytick"><text text-anchor="end" x="76.2" y="4.8999999999999995" style="font-family: 'Open Sans', verdana, arial, sans-serif; font-size: 14px; fill: rgb(51, 51, 51); fill-opacity: 1; white-space: pre; opacity: 1;" transform="translate(0,236.85)">992.5k</text></g><g class="ytick"><text text-anchor="end" x="76.2" y="4.8999999999999995" style="font-family: 'Open Sans', verdana, arial, sans-serif; font-size: 14px; fill: rgb(51, 51, 51); fill-opacity: 1; white-space: pre; opacity: 1;" transform="translate(0,195.15)">993k</text></g><g class="ytick"><text text-anchor="end" x="76.2" y="4.8999999999999995" style="font-family: 'Open Sans', verdana, arial, sans-serif; font-size: 14px; fill: rgb(51, 51, 51); fill-opacity: 1; white-space: pre; opacity: 1;" transform="translate(0,153.45)">993.5k</text></g><g class="ytick"><text text-anchor="end" x="76.2" y="4.8999999999999995" style="font-family: 'Open Sans', verdana, arial, sans-serif; font-size: 14px; fill: rgb(51, 51, 51); fill-opacity: 1; white-space: pre; opacity: 1;" transform="translate(0,111.75)">994k</text></g></g><g class="overaxes-above"/></g></g><g class="polarlayer"/><g class="smithlayer"/><g class="ternarylayer"/><g class="geolayer"/><g class="funnelarealayer"/><g class="pielayer"/><g class="iciclelayer"/><g class="treemaplayer"/><g class="sunburstlayer"/><g class="glimages"/><defs id="topdefs-b2e8c0"><g class="clips"><clipPath class="annclip" id="clipb2e8c0_ann0"><rect x="2" y="2" width="220" height="14"/></clipPath></g></defs><g class="layer-above"><g class="imagelayer"/><g class="shapelayer"><g class="shape-group" data-index="0" clip-path="url(#clipb2e8c0y)"><path data-index="0" fill-rule="evenodd" d="M820,227.26L827.4,227.26" style="opacity: 1; stroke: rgb(0, 0, 0); stroke-opacity: 1; fill: rgb(0, 0, 0); fill-opacity: 1; stroke-width: 1px;"/><g data-index="0" class="shape-label"><text data-notex="1" class="shape-label-text" x="827.4" y="233.26" style="font-family: 'Open Sans', verdana, arial, sans-serif; font-size: 14px; fill: rgb(51, 51, 51); fill-opacity: 1; white-space: pre;" text-anchor="start" transform="rotate(0,827.4,233.26)">992,615</text></g></g></g></g><g class="infolayer"><g class="g-gtitle"><text class="gtitle" x="450" y="50" text-anchor="middle" dy="0em" style="font-family: 'Open Sans', verdana, arial, sans-serif; font-size: 20px; fill: rgb(51, 51, 51); opacity: 1; font-weight: normal; white-space: pre;"><tspan class="line" dy="0em" x="450" y="50"><tspan style="font-weight:bold">Unique domain counts</tspan></tspan><tspan class="line" dy="1.3em" x="450" y="50">​<tspan style="font-size:70%" dy="-0.6em"><tspan style="font-weight:bold">(with subdomains)</tspan></tspan><tspan dy="0.42em">​</tspan></tspan></text></g><g class="g-xtitle"><text class="xtitle" x="450" y="470.4" text-anchor="middle" style="font-family: 'Open Sans', verdana, arial, sans-serif; font-size: 17px; fill: rgb(51, 51, 51); opacity: 1; font-weight: normal; white-space: pre;">Date</text></g><g class="g-ytitle"><text class="ytitle" transform="rotate(-90,22.75625,260)" x="22.75625" y="260" text-anchor="middle" style="font-family: 'Open Sans', verdana, arial, sans-serif; font-size: 17px; fill: rgb(51, 51, 51); opacity: 1; font-weight: normal; white-space: pre;">Domain counts</text></g><g class="annotation" data-index="0" style="opacity: 1;"><g class="annotation-text-g" transform="rotate(0,114.3,491)"><g class="cursor-pointer" transform="translate(2,482)"><rect class="bg" x="0.5" y="0.5" width="223" height="17" style="stroke-width: 1px; stroke: rgb(0, 0, 0); stroke-opacity: 0; fill: rgb(0, 0, 0); fill-opacity: 0;"/><text class="annotation-text" text-anchor="start" x="2" y="13" style="font-family: 'Open Sans', verdana, arial, sans-serif; font-size: 12px; fill: rgb(0, 0, 0); fill-opacity: 1; white-space: pre;" clip-path="url(#clipb2e8c0_ann0)">Last update: Jun 21 2023 12:50:23 UTC</text></g></g></g></g></svg>